<?xml version="1.0" encoding="UTF-8" standalone="no"?>
<!-- Created with Inkscape (http://www.inkscape.org/) -->

<svg
   width="136.49371mm"
   height="138.72993mm"
   viewBox="0 0 136.49371 138.72993"
   version="1.1"
   id="svg1"
   sodipodi:docname="code_cat_fill.svg"
   inkscape:version="1.4.2 (f4327f4, 2025-05-13)"
   xmlns:inkscape="http://www.inkscape.org/namespaces/inkscape"
   xmlns:sodipodi="http://sodipodi.sourceforge.net/DTD/sodipodi-0.dtd"
   xmlns="http://www.w3.org/2000/svg"
   xmlns:svg="http://www.w3.org/2000/svg">
  <sodipodi:namedview
     id="namedview1"
     pagecolor="#ffffff"
     bordercolor="#000000"
     borderopacity="0.25"
     inkscape:showpageshadow="2"
     inkscape:pageopacity="0.0"
     inkscape:pagecheckerboard="0"
     inkscape:deskcolor="#d1d1d1"
     inkscape:document-units="mm"
     inkscape:zoom="1.3772587"
     inkscape:cx="246.8672"
     inkscape:cy="244.32592"
     inkscape:window-width="1920"
     inkscape:window-height="991"
     inkscape:window-x="-9"
     inkscape:window-y="-9"
     inkscape:window-maximized="1"
     inkscape:current-layer="layer1"
     showguides="true"
     showgrid="true">
    <inkscape:grid
       id="grid19"
       units="mm"
       originx="-34.147057"
       originy="-36.334192"
       spacingx="0.99999998"
       spacingy="1"
       empcolor="#0099e5"
       empopacity="0.30196078"
       color="#0099e5"
       opacity="0.14901961"
       empspacing="5"
       enabled="true"
       visible="true" />
  </sodipodi:namedview>
  <defs
     id="defs1">
    <inkscape:path-effect
       effect="clone_original"
       linkeditem=""
       id="path-effect7"
       is_visible="true"
       lpeversion="1"
       method="d"
       attributes=""
       css_properties=""
       allow_transforms="true" />
    <inkscape:path-effect
       effect="mirror_symmetry"
       start_point="102.97024,96.921278"
       end_point="102.97024,140.62356"
       center_point="102.97024,118.77242"
       id="path-effect21"
       is_visible="true"
       lpeversion="1.2"
       lpesatellites=""
       mode="free"
       discard_orig_path="false"
       fuse_paths="false"
       oposite_fuse="false"
       split_items="false"
       split_open="false"
       link_styles="false" />
    <inkscape:path-effect
       effect="clone_original"
       linkeditem=""
       id="path-effect19"
       is_visible="true"
       lpeversion="1"
       method="d"
       attributes=""
       css_properties=""
       allow_transforms="true" />
    <inkscape:path-effect
       effect="clone_original"
       linkeditem=""
       id="path-effect17"
       is_visible="true"
       lpeversion="1"
       method="d"
       attributes=""
       css_properties=""
       allow_transforms="true" />
    <linearGradient
       id="swatch1"
       inkscape:swatch="solid">
      <stop
         style="stop-color:#000000;stop-opacity:1;"
         offset="0"
         id="stop1" />
    </linearGradient>
  </defs>
  <g
     inkscape:label="Layer 1"
     inkscape:groupmode="layer"
     id="layer1"
     transform="translate(-34.147059,-36.334194)">
    <ellipse
       style="fill:#808080;fill-opacity:1;stroke:#070707;stroke-width:0.865;stroke-dasharray:none;stroke-opacity:0"
       id="path1"
       cx="102.39391"
       cy="116.80207"
       rx="67.814354"
       ry="50.524578" />
    <path
       style="fill:#808080;fill-opacity:1;stroke:#070707;stroke-width:0.865;stroke-dasharray:none;stroke-opacity:0"
       d="M 88.754203,66.853815 55.711513,36.884864 c 0,0 -25.720359,17.740722 -13.063389,55.711514 l 0.192109,0.576326"
       id="path6"
       inkscape:path-effect="#path-effect7"
       inkscape:original-d="M 88.754203,66.853815 55.711513,36.884864 c 0,0 -25.720359,17.740722 -13.063389,55.711514 l 0.192109,0.576326"
       sodipodi:nodetypes="ccsc"
       transform="matrix(-1,0,0,1,205.02072,0)" />
    <path
       style="fill:#808080;fill-opacity:1;stroke:#070707;stroke-width:0.865;stroke-dasharray:none;stroke-opacity:0"
       d="M 88.754203,66.853815 55.711513,36.884864 c 0,0 -25.720359,17.740722 -13.063389,55.711514 l 0.192109,0.576326"
       id="path3"
       sodipodi:nodetypes="ccsc"
       inkscape:original-d="M 88.754203,66.853815 55.711513,36.884864 c 0,0 -25.720359,17.740722 -13.063389,55.711514 l 0.192109,0.576326"
       inkscape:path-effect="#path-effect17" />
    <path
       style="fill:#808080;fill-opacity:0;stroke:#070707;stroke-width:0.865;stroke-dasharray:none;stroke-opacity:0"
       id="ellipse22"
       sodipodi:type="arc"
       sodipodi:cx="102.00969"
       sodipodi:cy="117.13913"
       sodipodi:rx="66.661705"
       sodipodi:ry="50.524578"
       sodipodi:start="3.8271685"
       sodipodi:end="5.6248023"
       sodipodi:arc-type="arc"
       d="m 50.40989,85.151067 a 66.661705,50.524578 0 0 1 52.50613,-18.531845 66.661705,50.524578 0 0 1 51.82192,19.607019"
       sodipodi:open="true" />
    <path
       style="fill:#808080;fill-opacity:1;stroke:#070707;stroke-width:0.865;stroke-dasharray:none;stroke-opacity:0"
       d="m 64.548511,104.89133 c 0,0 -16.905562,64.16429 35.732209,4.99483"
       id="path19" />
    <path
       style="fill:#808080;fill-opacity:1;stroke:#070707;stroke-width:1.265;stroke-dasharray:none;stroke-opacity:0"
       id="path20"
       sodipodi:type="arc"
       sodipodi:cx="76.651352"
       sodipodi:cy="115.26521"
       sodipodi:rx="26.318886"
       sodipodi:ry="25.358343"
       sodipodi:start="0"
       sodipodi:end="3.9502906"
       sodipodi:open="true"
       sodipodi:arc-type="arc"
       d="m 102.97024,115.26521 c 0,11.5506 -8.101328,21.64174 -19.704706,24.54452 -11.603378,2.90277 -23.776581,-2.11638 -29.608656,-12.20799 -5.832075,-10.0916 -3.849229,-22.70547 4.822838,-30.680468 m 44.490524,18.343938 c 0,11.5506 8.10133,21.64174 19.70471,24.54452 11.60337,2.90277 23.77658,-2.11638 29.60865,-12.20799 5.83208,-10.0916 3.84923,-22.70547 -4.82284,-30.680468"
       inkscape:path-effect="#path-effect21"
       transform="translate(-0.52916667)" />
    <path
       style="fill:#808080;fill-opacity:1;stroke:#070707;stroke-width:0.865;stroke-dasharray:none;stroke-opacity:0"
       id="path22"
       sodipodi:type="arc"
       sodipodi:cx="72.809189"
       sodipodi:cy="88.369987"
       sodipodi:rx="2.8816299"
       sodipodi:ry="3.0737386"
       sodipodi:start="3.8271685"
       sodipodi:end="3.4197794"
       sodipodi:arc-type="slice"
       d="m 70.57865,86.423946 a 2.8816299,3.0737386 0 0 1 3.818717,-0.618727 2.8816299,3.0737386 0 0 1 0.965305,3.989284 2.8816299,3.0737386 0 0 1 -3.62243,1.429918 2.8816299,3.0737386 0 0 1 -1.701899,-3.698521 l 2.770846,0.844087 z" />
    <path
       style="fill:#808080;fill-opacity:0;stroke:#070707;stroke-width:0.865;stroke-dasharray:none;stroke-opacity:0"
       d="M 75.882922,70.503879 54.943078,49.948253"
       id="path24"
       sodipodi:nodetypes="cc" />
    <path
       style="fill:#808080;fill-opacity:0;stroke:#070707;stroke-width:0.865;stroke-dasharray:none;stroke-opacity:0"
       d="M 128.90491,70.50388 149.84476,49.948253"
       id="path25"
       sodipodi:nodetypes="cc" />
    <path
       style="fill:#808080;fill-opacity:1;stroke:#070707;stroke-width:0.865;stroke-dasharray:none;stroke-opacity:0"
       id="path26"
       sodipodi:type="arc"
       sodipodi:cx="-132.10466"
       sodipodi:cy="88.514069"
       sodipodi:rx="2.8816299"
       sodipodi:ry="3.0737386"
       sodipodi:start="3.8271685"
       sodipodi:end="3.4197794"
       sodipodi:arc-type="slice"
       d="m -134.3352,86.568027 a 2.8816299,3.0737386 0 0 1 3.81872,-0.618727 2.8816299,3.0737386 0 0 1 0.9653,3.989284 2.8816299,3.0737386 0 0 1 -3.62243,1.429918 2.8816299,3.0737386 0 0 1 -1.7019,-3.698521 l 2.77085,0.844088 z"
       transform="scale(-1,1)" />
    <ellipse
       style="fill:#808080;fill-opacity:1;stroke:#070707;stroke-width:0.865;stroke-dasharray:none;stroke-opacity:0"
       id="path2"
       cx="62.299053"
       cy="162.33182"
       rx="12.1989"
       ry="12.102846" />
    <ellipse
       style="fill:#808080;fill-opacity:1;stroke:#070707;stroke-width:0.865;stroke-dasharray:none;stroke-opacity:0"
       id="path2-8"
       cx="142.32701"
       cy="162.52878"
       rx="12.1989"
       ry="12.102846"
       inkscape:transform-center-x="77.80401"
       inkscape:transform-center-y="-2.88163" />
    <ellipse
       style="fill:#808080;fill-opacity:1;stroke:#070707;stroke-width:0.865;stroke-dasharray:none;stroke-opacity:0"
       id="path4"
       cx="62.106941"
       cy="165.88583"
       rx="7.0119662"
       ry="4.3224449" />
    <ellipse
       style="fill:#808080;fill-opacity:1;stroke:#070707;stroke-width:0.865;stroke-dasharray:none;stroke-opacity:0"
       id="path4-1"
       cx="142.1339"
       cy="165.50891"
       rx="7.0119662"
       ry="4.3224449" />
    <ellipse
       style="fill:#808080;fill-opacity:1;stroke:#070707;stroke-width:0.865;stroke-dasharray:none;stroke-opacity:0"
       id="path5"
       cx="56.631844"
       cy="156.85672"
       rx="1.9210867"
       ry="1.6329236" />
    <ellipse
       style="fill:#808080;fill-opacity:1;stroke:#070707;stroke-width:0.865;stroke-dasharray:none;stroke-opacity:0"
       id="path5-2"
       cx="62.031231"
       cy="154.96927"
       rx="1.9210867"
       ry="1.6329236" />
    <ellipse
       style="fill:#808080;fill-opacity:1;stroke:#070707;stroke-width:0.865;stroke-dasharray:none;stroke-opacity:0"
       id="path5-23"
       cx="67.973724"
       cy="156.75929"
       rx="1.9210867"
       ry="1.6329236" />
    <ellipse
       style="fill:#808080;fill-opacity:1;stroke:#070707;stroke-width:0.865;stroke-dasharray:none;stroke-opacity:0"
       id="path5-8"
       cx="137.02647"
       cy="157.11127"
       rx="1.9210867"
       ry="1.6329236" />
    <ellipse
       style="fill:#808080;fill-opacity:1;stroke:#070707;stroke-width:0.865;stroke-dasharray:none;stroke-opacity:0"
       id="path5-89"
       cx="142.58275"
       cy="154.9946"
       rx="1.9210867"
       ry="1.6329236" />
    <ellipse
       style="fill:#808080;fill-opacity:1;stroke:#070707;stroke-width:0.865;stroke-dasharray:none;stroke-opacity:0"
       id="path5-4"
       cx="148.13902"
       cy="157.11127"
       rx="1.9210867"
       ry="1.6329236" />
    <path
       style="fill:#808080;fill-opacity:1;stroke:#070707;stroke-width:1.265;stroke-dasharray:none;stroke-opacity:0"
       d="m 86.880275,105.36986 30.737385,0.19211 c 0,0 1.72898,9.60543 -15.94502,9.22121 -17.673995,-0.38421 -14.792365,-9.41332 -14.792365,-9.41332 z"
       id="path8"
       sodipodi:nodetypes="ccsc" />
    <path
       style="fill:#808080;stroke:#070707;stroke-width:3.47146;stroke-opacity:0"
       d="M 224.72176,655.95804 C 205.49418,650.90833 191.3473,632.927 191.3473,613.5376 c 0,-19.55263 14.26415,-37.52208 33.70853,-42.46476 5.44377,-1.38379 14.65457,-1.3965 20.45658,-0.0282 12.79777,3.01803 23.57812,11.60964 29.69597,23.66676 5.54835,10.93477 5.47359,26.84289 -0.17868,38.01552 -5.92632,11.71435 -16.81014,20.30706 -29.51729,23.30373 -5.62655,1.32688 -15.5945,1.29209 -20.79065,-0.0726 z m 22.68867,-12.64748 c 5.40727,-1.67013 10.80118,-5.29886 13.48651,-9.07298 1.57471,-2.2132 1.92071,-3.50664 1.93121,-7.21951 0.0108,-3.80731 -0.31643,-4.99876 -2.06728,-7.5275 -2.55919,-3.69624 -7.71515,-7.0874 -13.7135,-9.01961 -5.50723,-1.774 -16.44149,-2.08888 -22.32561,-0.64291 -8.89972,2.18702 -16.85453,8.27533 -17.86754,13.67514 -0.81475,4.34297 0.10863,8.81284 2.41478,11.68953 7.10641,8.86449 24.04916,12.4705 38.14143,8.11784 z m -29.68502,-43.11745 c 5.38872,-2.25155 7.1345,-7.88867 3.70523,-11.96413 -3.60333,-4.28232 -10.04047,-4.65493 -14.14696,-0.8189 -1.73339,1.61923 -2.16608,2.62745 -2.16608,5.04721 0,4.08667 1.01414,5.70401 4.59658,7.33057 3.63954,1.65249 4.87642,1.71506 8.01123,0.40525 z m 44.0502,-0.82636 c 2.29452,-1.18654 4.33271,-4.4256 4.33271,-6.88547 0,-0.83835 -0.49564,-2.48272 -1.10141,-3.65416 -2.59347,-5.01523 -11.11316,-5.87239 -15.01075,-1.51023 -3.52499,3.94515 -2.15151,10.52047 2.59844,12.43966 2.4529,0.99108 6.87363,0.80339 9.18101,-0.3898 z m -22.79152,-6.62034 c 4.79251,-2.27419 6.05914,-8.06583 2.60858,-11.92767 -5.28957,-5.92006 -16.14483,-2.57321 -16.14483,4.97772 0,6.39758 7.06073,10.02279 13.53625,6.94995 z"
       id="path7"
       transform="scale(0.26458333)" />
    <path
       style="fill:#808080;fill-opacity:1;stroke:#070707;stroke-width:0;stroke-dasharray:none;stroke-opacity:0"
       d="m 224.73936,639.96467 c -22.58012,-6.06783 -17.00999,-25.58546 7.69702,-26.97019 14.44556,-0.80962 26.55636,5.56383 26.55636,13.9756 0,5.58554 -5.86177,10.72255 -15.02986,13.17156 -4.72368,1.26181 -14.19385,1.17462 -19.22352,-0.17697 z"
       id="path9"
       transform="scale(0.26458333)" />
    <path
       style="fill:#808080;stroke:#070707;stroke-width:3.47146;stroke-opacity:0"
       d="m 210.20016,595.3856 c -0.79869,-0.79869 -1.45216,-1.94226 -1.45216,-2.54128 0,-1.94429 2.76726,-3.99344 5.3929,-3.99344 1.81948,0 2.89053,0.511 3.98355,1.90054 1.51217,1.92242 1.44709,2.52118 -0.52342,4.8157 -1.49864,1.74506 -5.57425,1.6451 -7.40087,-0.18152 z"
       id="path10"
       transform="scale(0.26458333)" />
    <path
       style="fill:#808080;stroke:#070707;stroke-width:3.47146;stroke-opacity:0"
       d="m 230.5304,588.1248 c -0.79869,-0.79869 -1.45216,-1.88531 -1.45216,-2.41471 0,-1.6185 3.2446,-4.12001 5.34388,-4.12001 1.95413,0 5.54732,2.80047 5.54732,4.32348 0,1.66941 -2.96404,3.6634 -5.4456,3.6634 -1.57317,0 -3.09448,-0.5532 -3.99344,-1.45216 z"
       id="path11"
       transform="scale(0.26458333)" />
    <path
       style="fill:#808080;stroke:#070707;stroke-width:3.47146;stroke-opacity:0"
       d="m 255.21712,596.33775 c -1.90672,-0.72752 -3.6304,-2.58695 -3.6304,-3.9163 0,-2.13079 3.62392,-4.47694 6.16022,-3.98817 2.017,0.38869 4.73098,2.71088 4.73098,4.048 0,2.26381 -4.78043,4.80287 -7.2608,3.85647 z"
       id="path12"
       transform="scale(0.26458333)" />
    <path
       style="fill:#808080;stroke:#070707;stroke-width:3.47146;stroke-opacity:0"
       d="m 364.49216,629.77467 c -26.69996,-2.13838 -53.03754,-6.97031 -74.50554,-13.66887 l -6.25401,-1.95141 -0.45931,-4.942 c -1.59583,-17.17054 -11.92226,-31.71766 -27.59259,-38.87043 -7.21875,-3.29501 -12.01437,-4.30098 -20.43079,-4.2857 -9.8282,0.0178 -18.9125,2.6113 -26.16876,7.47088 l -2.20812,1.4788 -9.40916,-7.85378 c -22.19005,-18.52191 -39.00992,-39.58198 -50.04489,-62.66093 -19.55265,-40.89313 -19.46207,-85.57664 0.25657,-126.56659 4.25515,-8.84535 11.07153,-20.42542 14.2384,-24.18903 0.95782,-1.1383 5.76101,-4.37925 10.67376,-7.20213 4.91276,-2.82287 41.15896,-23.60386 80.54711,-46.17999 l 71.61484,-41.0475 9.70612,-1.45496 c 37.87534,-5.67756 75.28727,-5.20574 110.40755,1.39241 l 7.76317,1.45849 78.98091,45.2829 78.98091,45.28289 4.99039,7.51982 c 18.36551,27.67424 27.77671,62.18213 25.26883,92.6527 -2.47889,30.11822 -12.87288,56.65426 -32.35056,82.5916 -7.58282,10.09761 -24.46281,27.37676 -34.75403,35.57584 l -7.12103,5.67337 -5.94841,-3.01883 c -8.37976,-4.25275 -13.7543,-5.50173 -23.37432,-5.43189 -6.51853,0.0473 -9.05477,0.40485 -13.79552,1.94469 -18.02897,5.85598 -30.56166,20.69682 -33.22588,39.3451 l -0.90115,6.30762 -4.35584,1.36722 c -18.48059,5.80069 -38.77876,9.99634 -61.35313,12.68172 -9.38376,1.11626 -50.25182,2.01269 -59.17552,1.29799 z m -58.19093,-97.19706 c 31.1397,-5.43031 58.84002,-25.58915 72.8299,-53.00177 3.33218,-6.52927 6.92151,-15.732 7.6462,-19.60416 0.1596,-0.85274 1.07375,1.09537 2.21464,4.71952 10.95566,34.80152 41.16629,60.69357 79.32963,67.98957 8.77836,1.67822 27.27401,1.69285 36.46632,0.0288 26.06417,-4.71819 49.0698,-18.63008 64.32737,-38.89984 14.46451,-19.21615 20.81617,-40.72836 19.26096,-65.23422 -1.05841,-16.67767 -6.43485,-32.24139 -16.24311,-47.02051 -4.28232,-6.45261 -13.73848,-17.06288 -15.20689,-17.06288 -0.51974,0 -1.4974,0.84307 -2.17255,1.87348 -1.2202,1.86226 -1.20421,1.89817 2.66615,5.99016 12.09501,12.7876 20.00579,27.55199 23.99169,44.77716 2.0472,8.84704 2.18993,26.96464 0.28197,35.79289 -3.95927,18.31987 -12.62954,34.21645 -25.83143,47.36088 -14.61732,14.55369 -33.6797,24.04515 -54.86688,27.31907 -9.4566,1.46127 -26.4138,0.92826 -35.21488,-1.1069 -19.98662,-4.6217 -35.9152,-13.49454 -49.59378,-27.62567 -10.47627,-10.82288 -17.40483,-22.22002 -21.92384,-36.06361 -2.29079,-7.01765 -3.9947,-16.47588 -3.9947,-22.17417 v -4.26137 h 4.80786 c 6.84408,0 18.91927,-1.92651 25.5034,-4.06888 10.56162,-3.43658 18.86656,-9.41081 23.08232,-16.60445 2.50227,-4.26981 4.26157,-11.85983 3.6674,-15.82204 l -0.48078,-3.20604 -21.87365,-0.47954 c -12.03051,-0.26374 -39.1477,-0.47953 -60.26041,-0.47953 -44.13405,0 -39.44417,-0.99747 -39.40741,8.38138 0.0284,7.24643 2.27266,12.37537 7.79254,17.80887 8.43596,8.30394 28.60842,14.47023 47.33804,14.47023 4.67703,0 4.56874,-0.3284 3.28014,9.94842 -5.2291,41.70288 -38.25712,74.57526 -81.66817,81.2833 -14.01158,2.16512 -32.47349,0.51474 -46.10608,-4.12161 -32.9601,-11.20949 -57.81518,-39.55919 -63.55872,-72.49511 -0.58432,-3.35074 -1.0624,-10.25423 -1.0624,-15.34108 0,-5.08685 0.47808,-11.99034 1.0624,-15.34107 2.99716,-17.187 11.46395,-33.93268 23.5576,-46.59237 l 5.40907,-5.66225 -1.88223,-1.88222 c -1.86727,-1.86727 -1.89607,-1.87132 -3.6247,-0.50944 -0.95836,0.75504 -3.64165,3.49658 -5.96286,6.09231 -22.98674,25.70534 -30.47251,63.69334 -18.88638,95.84256 13.30257,36.91198 46.78446,62.21368 87.81974,66.3639 5.25336,0.5313 21.07776,-0.26422 27.48651,-1.38181 z M 279.40735,346.74037 c 5.29905,-1.88988 8.48337,-6.60471 8.48337,-12.56079 0,-9.7986 -9.16546,-16.44128 -17.52562,-12.70172 -3.2955,1.4741 -5.42455,3.39323 -5.83328,5.25814 -0.13128,0.59902 -0.54271,1.30821 -0.91427,1.57599 -0.37157,0.26777 -0.81521,2.41722 -0.98587,4.77655 -0.33401,4.61768 1.11656,8.64629 4.07739,11.32394 1.67076,1.51095 6.28432,3.3161 8.47525,3.3161 0.79869,0 2.69905,-0.4447 4.22303,-0.98821 z m 225.53086,-0.0111 c 2.83838,-1.46778 5.65921,-4.99916 6.65909,-8.33646 1.06835,-3.56581 0.28834,-9.47858 -1.2504,-9.47858 -0.59811,0 -0.87667,-0.3411 -0.619,-0.75801 0.84176,-1.362 -1.88673,-4.42912 -5.27245,-5.92678 -7.87355,-3.48284 -16.21389,1.28789 -17.88786,10.23199 -0.92206,4.92663 1.97111,11.2717 6.35982,13.94787 2.75602,1.68057 9.05518,1.84838 12.0108,0.31997 z"
       id="path13"
       transform="scale(0.26458333)" />
    <path
       style="fill:#808080;stroke:#070707;stroke-width:3.47146;stroke-opacity:0"
       d="m 374.2568,430.58788 c -27.88556,-2.72451 -43.44759,-12.18785 -43.51141,-26.4595 l -0.0159,-3.56554 19.72212,0.4797 c 10.84717,0.26384 35.88689,0.4797 55.64382,0.4797 h 35.92169 l -0.44723,3.26287 c -0.86511,6.31164 -5.54646,12.87822 -12.64176,17.73271 -3.51399,2.40422 -13.16782,5.71957 -20.34709,6.98767 -7.62912,1.34757 -25.75869,1.91927 -34.32419,1.08239 z"
       id="path14"
       transform="scale(0.26458333)" />
    <path
       style="fill:#808080;stroke:#070707;stroke-width:3.47146;stroke-opacity:0"
       d="m 160.93581,342.44433 c -12.05983,-39.47488 -14.1228,-76.54964 -6.1465,-110.46177 5.70186,-24.2421 18.44224,-49.97198 33.95112,-68.56616 4.85102,-5.81606 20.37298,-21.10472 21.42678,-21.10472 0.67263,0 122.26544,110.14141 122.58907,111.04385 0.1164,0.32458 -2.98759,1.1547 -6.89776,1.84471 -3.91017,0.69001 -13.48075,2.89513 -21.26796,4.90026 -7.78721,2.00512 -14.88306,3.68706 -15.76857,3.73763 -1.1961,0.0683 -8.47606,-6.63795 -28.31712,-26.08559 -53.47049,-52.41022 -51.64569,-50.69398 -52.84344,-49.69993 -0.60042,0.4983 -1.09167,1.28344 -1.09167,1.74475 0,0.46132 17.31688,17.79237 38.48195,38.51346 l 38.48194,37.6747 -9.25722,3.39064 c -22.02609,8.06748 -43.13127,19.05275 -61.71609,32.12325 -7.06248,4.96696 -19.43272,14.86881 -21.92344,17.54877 -1.67499,1.80225 -1.70471,1.9787 -0.53094,3.15248 1.45073,1.45073 0.75037,1.86992 10.31723,-6.17522 28.52586,-23.98845 65.7574,-42.34881 107.15573,-52.84274 4.03691,-1.0233 7.63796,-1.76118 8.00233,-1.63972 0.36437,0.12146 -31.27493,18.51535 -70.30956,40.87532 -39.03463,22.35998 -73.4731,42.16873 -76.52994,44.01947 l -5.55789,3.36496 z"
       id="path15"
       transform="scale(0.26458333)" />
    <path
       style="fill:#808080;stroke:#070707;stroke-width:3.47146;stroke-opacity:0"
       d="m 536.3225,306.23119 c -41.2369,-23.65074 -74.68528,-43.09832 -74.32972,-43.21683 0.35555,-0.11852 5.74947,1.24913 11.98648,3.03923 39.99278,11.47842 75.01225,30.31491 103.25214,55.5379 6.40032,5.71657 6.56023,5.80694 7.90157,4.4656 1.34134,-1.34133 1.27526,-1.45669 -3.26516,-5.70006 -9.74786,-9.11014 -22.56924,-18.86076 -35.49261,-26.99201 -10.9875,-6.91324 -33.35425,-17.92632 -46.26833,-22.78192 l -10.32737,-3.883 38.82601,-38.01054 c 21.35431,-20.9058 38.82601,-38.39763 38.82601,-38.87074 0,-0.47312 -0.50567,-1.27988 -1.12372,-1.79282 -0.96439,-0.80037 -2.74027,0.65852 -12.52488,10.28918 -40.95374,40.30938 -68.44906,67.13745 -68.62596,66.96055 -0.59348,-0.59348 -19.58765,-5.70534 -28.0896,-7.55969 -12.51371,-2.72934 -15.39397,-3.53856 -15.11234,-4.24586 0.12524,-0.31452 27.02005,-24.84424 59.76626,-54.51048 32.74621,-29.66625 60.26304,-54.59517 61.14851,-55.3976 l 1.60996,-1.45897 2.60464,1.98666 c 4.35167,3.31918 14.94492,14.19229 20.19679,20.73037 15.14136,18.84956 26.04802,40.68565 32.04358,64.15404 4.29016,16.79301 5.08357,23.93215 5.05486,45.48404 -0.0277,20.79898 -0.90598,29.07451 -5.04823,47.56735 -2.19046,9.7792 -6.716,25.84693 -7.51126,26.66836 -0.28679,0.29622 -34.26072,-18.81202 -75.49763,-42.46276 z"
       id="path16"
       transform="scale(0.26458333)" />
    <path
       style="fill:#808080;stroke:#070707;stroke-width:3.47146;stroke-opacity:0"
       d="m 527.33858,656.70092 c -11.80602,-2.86217 -23.40239,-12.1701 -28.78566,-23.10507 -3.12409,-6.34593 -4.45548,-12.12278 -4.45548,-19.33217 0,-12.18612 3.7803,-21.1671 12.75503,-30.3025 4.85638,-4.94333 6.93272,-6.47056 11.98852,-8.81799 7.3071,-3.39273 11.9046,-4.44431 19.43052,-4.44431 18.81969,0 35.60089,12.48824 41.95415,31.22144 1.90105,5.60542 1.90105,19.08131 0,24.68672 -2.49027,7.34282 -5.75105,12.57465 -11.35085,18.2121 -5.96845,6.00859 -12.69152,9.88491 -20.65544,11.90931 -5.28739,1.34403 -15.27763,1.33086 -20.88079,-0.0275 z m 16.70344,-13.41966 c 9.39998,-1.52541 17.30736,-6.14848 20.25021,-11.83932 1.4857,-2.87302 1.50513,-8.94508 0.0376,-11.74965 -2.46509,-4.71101 -9.06641,-9.22498 -16.50248,-11.28438 -5.00265,-1.38547 -16.98184,-1.2121 -22.14544,0.3205 -7.88969,2.34172 -13.22915,6.3235 -15.69869,11.70695 -1.81934,3.96606 -1.69631,6.67225 0.50412,11.08792 4.49567,9.02165 19.0307,14.11491 33.55467,11.75798 z M 522.91278,600.5043 c 2.80468,-1.71013 4.00348,-3.78721 4.00348,-6.93657 0,-5.12866 -4.06353,-8.05733 -10.34244,-7.45401 -4.36182,0.41912 -6.99014,2.54237 -7.67658,6.20142 -1.326,7.06819 7.44709,12.19423 14.01554,8.18916 z m 41.6064,0.33105 c 2.93901,-1.51982 4.3645,-3.85054 4.3645,-7.13607 0,-2.23369 -0.51005,-3.32543 -2.46867,-5.28405 -2.23004,-2.23004 -2.86873,-2.46867 -6.60733,-2.46867 -3.7386,0 -4.37728,0.23863 -6.60733,2.46867 -6.88921,6.88922 2.36902,17.04825 11.31883,12.42012 z m -21.05632,-7.98688 c 2.97433,-1.53809 4.36811,-3.86404 4.34141,-7.24499 -0.039,-4.94156 -3.32219,-7.6438 -9.28707,-7.6438 -3.4723,0 -4.17776,0.27326 -6.37317,2.46867 -6.88921,6.88922 2.36902,17.04825 11.31883,12.42012 z"
       id="path17"
       transform="scale(0.26458333)" />
    <path
       style="fill:#808080;stroke:#070707;stroke-width:3.47146;stroke-opacity:0"
       d="m 527.49712,638.68163 c -5.13366,-1.49782 -8.95049,-3.73398 -11.84833,-6.94154 -2.27107,-2.5138 -2.67327,-3.46586 -2.67327,-6.32799 0,-3.05482 0.32162,-3.6881 3.44888,-6.79093 5.22643,-5.18561 10.08963,-6.81213 20.51176,-6.86023 9.38311,-0.0433 13.76273,1.05891 18.84968,4.74388 9.47518,6.86378 6.87129,16.1681 -5.91886,21.14952 -4.84694,1.88776 -17.43879,2.46601 -22.36986,1.02729 z"
       id="path18"
       transform="scale(0.26458333)" />
    <path
       style="fill:#808080;stroke:#070707;stroke-width:3.47146;stroke-opacity:0"
       d="m 557.48467,597.18944 c -2.54914,-1.07183 -3.41638,-2.80251 -2.37726,-4.74412 1.7207,-3.21516 5.47766,-3.70101 8.4717,-1.09555 1.93981,1.68804 1.98514,1.86782 0.94809,3.76021 -1.35047,2.46433 -4.15661,3.2929 -7.04253,2.07946 z"
       id="path21"
       transform="scale(0.26458333)" />
    <path
       style="fill:#808080;stroke:#070707;stroke-width:3.47146;stroke-opacity:0"
       d="m 536.41848,589.19841 c -2.97179,-1.24954 -3.49821,-3.65844 -1.28348,-5.87317 2.1336,-2.1336 4.62707,-2.21393 7.14884,-0.2303 2.21662,1.74359 2.44886,3.61524 0.64248,5.17797 -1.8949,1.63932 -4.07336,1.94912 -6.50784,0.9255 z"
       id="path23"
       transform="scale(0.26458333)" />
    <path
       style="fill:#808080;stroke:#070707;stroke-width:3.47146;stroke-opacity:0"
       d="m 515.90034,597.47488 c -2.14056,-0.84618 -2.89872,-1.89865 -2.9137,-4.04483 -0.0128,-1.8305 2.49219,-3.85309 4.77204,-3.85309 2.04432,0 5.38196,2.66458 5.38196,4.29665 0,2.71915 -4.19431,4.80537 -7.2403,3.60127 z"
       id="path27"
       transform="scale(0.26458333)" />
  </g>
</svg>
