<?xml version="1.0" encoding="UTF-8" standalone="no"?>
<!-- Created with Inkscape (http://www.inkscape.org/) -->

<svg
   width="136.49371mm"
   height="138.72993mm"
   viewBox="0 0 136.49371 138.72993"
   version="1.1"
   id="svg1"
   sodipodi:docname="code_cat_line.svg"
   inkscape:version="1.4.2 (f4327f4, 2025-05-13)"
   xmlns:inkscape="http://www.inkscape.org/namespaces/inkscape"
   xmlns:sodipodi="http://sodipodi.sourceforge.net/DTD/sodipodi-0.dtd"
   xmlns="http://www.w3.org/2000/svg"
   xmlns:svg="http://www.w3.org/2000/svg">
  <sodipodi:namedview
     id="namedview1"
     pagecolor="#ffffff"
     bordercolor="#000000"
     borderopacity="0.25"
     inkscape:showpageshadow="2"
     inkscape:pageopacity="0.0"
     inkscape:pagecheckerboard="0"
     inkscape:deskcolor="#d1d1d1"
     inkscape:document-units="mm"
     inkscape:zoom="1.3772587"
     inkscape:cx="246.8672"
     inkscape:cy="262.47792"
     inkscape:window-width="1920"
     inkscape:window-height="991"
     inkscape:window-x="-9"
     inkscape:window-y="-9"
     inkscape:window-maximized="1"
     inkscape:current-layer="layer1"
     showguides="true"
     showgrid="true">
    <inkscape:grid
       id="grid19"
       units="mm"
       originx="-34.147057"
       originy="-36.334192"
       spacingx="0.99999998"
       spacingy="1"
       empcolor="#0099e5"
       empopacity="0.30196078"
       color="#0099e5"
       opacity="0.14901961"
       empspacing="5"
       enabled="true"
       visible="true" />
  </sodipodi:namedview>
  <defs
     id="defs1">
    <inkscape:path-effect
       effect="clone_original"
       linkeditem=""
       id="path-effect7"
       is_visible="true"
       lpeversion="1"
       method="d"
       attributes=""
       css_properties=""
       allow_transforms="true" />
    <inkscape:path-effect
       effect="mirror_symmetry"
       start_point="102.97024,96.921279"
       end_point="102.97024,140.62356"
       center_point="102.97024,118.77242"
       id="path-effect21"
       is_visible="true"
       lpeversion="1.2"
       lpesatellites=""
       mode="free"
       discard_orig_path="false"
       fuse_paths="false"
       oposite_fuse="false"
       split_items="false"
       split_open="false"
       link_styles="false" />
    <inkscape:path-effect
       effect="clone_original"
       linkeditem=""
       id="path-effect19"
       is_visible="true"
       lpeversion="1"
       method="d"
       attributes=""
       css_properties=""
       allow_transforms="true" />
    <inkscape:path-effect
       effect="clone_original"
       linkeditem=""
       id="path-effect17"
       is_visible="true"
       lpeversion="1"
       method="d"
       attributes=""
       css_properties=""
       allow_transforms="true" />
    <linearGradient
       id="swatch1"
       inkscape:swatch="solid">
      <stop
         style="stop-color:#000000;stop-opacity:1;"
         offset="0"
         id="stop1" />
    </linearGradient>
  </defs>
  <g
     inkscape:label="Layer 1"
     inkscape:groupmode="layer"
     id="layer1"
     transform="translate(-34.147059,-36.334194)">
    <path
       id="path1"
       d="M 55.711634 36.885065 C 55.711634 36.885065 29.991379 54.625601 42.648349 92.596393 L 42.717595 92.804132 A 67.814354 50.524578 0 0 0 34.579591 116.80215 A 67.814354 50.524578 0 0 0 54.761821 152.76533 A 12.070362 12.070362 0 0 0 50.097507 162.29653 A 12.070362 12.070362 0 0 0 62.167571 174.3666 A 12.070362 12.070362 0 0 0 74.22885 162.76317 A 67.814354 50.524578 0 0 0 102.39406 167.32672 A 67.814354 50.524578 0 0 0 131.18351 162.54768 A 12.070362 12.070362 0 0 0 143.25409 174.564 A 12.070362 12.070362 0 0 0 155.32416 162.49342 A 12.070362 12.070362 0 0 0 150.21026 152.62942 A 67.814354 50.524578 0 0 0 170.20852 116.80215 A 67.814354 50.524578 0 0 0 162.22968 93.024791 L 162.37282 92.596393 C 175.02979 54.625601 149.30902 36.885065 149.30902 36.885065 L 116.26659 66.853778 L 117.71715 67.685252 A 67.814354 50.524578 0 0 0 102.39406 66.277586 A 67.814354 50.524578 0 0 0 87.392905 67.634092 L 88.754062 66.853778 L 55.711634 36.885065 z " />
  </g>
</svg>
